<?xml version="1.0" standalone="no"?>
<!DOCTYPE svg PUBLIC "-//W3C//DTD SVG 20010904//EN"
 "http://www.w3.org/TR/2001/REC-SVG-20010904/DTD/svg10.dtd">
<svg viewBox="0 0 1658 1005" fill="none" xmlns="http://www.w3.org/2000/svg">
<g filter="url(#filter0_d)">
<path d="M822.049 38.8142C821.649 44.5142 820.949 52.9142 820.449 57.6142C819.949 62.3142 818.949 72.6142 818.049 80.6142C817.249 88.6142 815.449 105.714 814.049 118.614C811.749 140.514 807.849 182.814 806.849 197.614C806.549 201.214 806.149 204.814 805.849 205.614C805.549 206.414 804.849 211.814 804.349 217.614C803.349 230.014 801.949 244.114 800.449 258.614C799.849 264.414 799.149 271.814 798.949 275.114C797.749 288.714 796.449 302.514 795.449 309.614C794.049 320.314 791.249 350.814 790.849 359.414C790.649 363.414 790.249 367.114 789.849 367.714C789.549 368.314 788.849 374.014 788.349 380.414C787.849 386.814 787.149 394.014 786.849 396.314L786.249 400.614H778.049H769.849L765.949 394.014C763.749 390.414 760.949 385.814 759.649 383.814C758.449 381.714 756.649 378.514 755.649 376.614C754.749 374.714 753.649 372.914 753.249 372.614C752.449 372.014 743.849 358.014 709.949 302.114C707.249 297.714 704.649 293.914 704.249 293.814C703.849 293.614 703.449 293.114 703.449 292.614C703.449 292.214 700.549 287.114 696.949 281.214C693.349 275.414 690.449 270.314 690.449 270.014C690.449 269.714 689.349 268.014 687.949 266.214C686.549 264.414 685.449 262.614 685.449 262.314C685.449 261.714 683.349 258.414 673.949 243.614C672.749 241.714 670.449 237.914 668.849 235.214C667.249 232.614 665.449 229.614 664.949 228.714C659.249 219.514 654.449 211.714 651.949 207.614C650.349 204.814 644.049 194.614 637.949 184.914C626.249 166.014 626.449 166.414 622.049 159.014C620.449 156.314 618.149 152.514 616.949 150.614C609.949 139.814 605.449 132.114 603.149 127.614C602.549 126.214 601.449 124.614 600.849 123.914C600.149 123.214 597.349 118.714 594.449 113.914C591.549 109.114 585.849 99.8142 581.849 93.4142C577.749 87.0142 574.449 81.4142 574.449 81.1142C574.449 80.8142 572.849 78.1142 570.749 75.0142C568.149 71.1142 566.849 69.8142 566.049 70.6142C564.249 72.4142 565.149 78.7142 568.849 90.1142C570.849 96.1142 573.149 103.314 574.049 106.114C574.949 108.814 575.849 111.814 576.149 112.614C576.549 113.414 576.749 114.414 576.649 114.814C576.549 115.214 577.249 117.214 578.049 119.214C578.949 121.314 580.449 125.914 581.449 129.514C582.349 133.114 583.649 137.414 584.249 139.114C585.449 142.414 590.949 160.114 595.049 174.114C596.449 179.014 598.049 184.214 598.449 185.614C598.949 187.014 600.949 193.514 602.949 200.114C604.949 206.714 608.949 219.714 611.949 229.114C614.849 238.414 618.649 250.814 620.449 256.614C622.149 262.414 626.949 277.214 630.949 289.614C639.649 315.814 643.749 329.114 645.449 336.114C646.149 338.814 647.949 344.714 649.449 349.114C650.949 353.514 653.649 362.014 655.449 368.114C660.749 386.114 664.249 395.014 674.249 414.814C674.449 415.314 669.249 415.614 662.749 415.614H650.949L645.349 411.314C642.249 409.014 638.049 405.814 635.849 404.114C633.749 402.514 629.849 399.414 627.349 397.414C624.849 395.314 622.349 393.614 621.849 393.614C621.249 393.614 620.149 392.514 619.449 391.114C618.749 389.714 617.749 388.614 617.349 388.614C616.949 388.614 611.849 384.914 606.149 380.314C600.449 375.814 588.349 366.314 579.349 359.114C570.349 352.014 562.249 345.614 561.449 344.914C560.649 344.214 546.249 332.914 529.449 319.714C498.649 295.514 489.149 287.914 487.049 286.114C486.449 285.514 481.049 281.214 474.949 276.414C450.449 256.914 427.849 238.914 425.949 237.414C421.749 233.914 397.849 214.914 392.949 211.114C390.149 208.914 387.149 206.514 386.349 205.814C385.549 205.114 380.049 200.714 373.949 196.014C362.949 187.414 339.349 168.814 324.349 156.814C320.049 153.414 316.449 151.014 316.449 151.514C316.449 152.014 316.949 152.814 317.449 153.114C318.049 153.514 321.449 157.414 325.049 161.914C328.649 166.414 333.649 172.314 335.949 175.114C338.349 177.814 345.149 185.914 351.149 193.014C369.349 214.714 386.349 234.814 391.249 240.414C393.849 243.414 397.349 247.314 398.949 249.214C400.649 251.014 403.349 254.214 404.949 256.314C409.149 261.514 426.749 281.914 428.049 283.114C428.649 283.614 430.449 285.914 432.049 288.014C433.649 290.214 435.849 292.914 436.949 294.114C438.049 295.314 440.949 298.714 443.449 301.714C445.949 304.614 448.849 308.014 449.949 309.114C451.049 310.314 454.549 314.314 457.649 318.214C460.749 322.014 464.149 326.014 465.149 327.114C466.149 328.214 472.549 335.814 479.449 344.114C496.349 364.314 521.949 394.514 524.849 397.614C526.049 399.014 529.349 402.814 532.049 406.114C534.749 409.414 537.649 412.814 538.449 413.614C539.249 414.414 542.149 417.814 544.949 421.114C547.649 424.414 550.349 427.414 550.849 427.814C551.349 428.114 552.049 435.914 552.249 445.014L552.749 461.614H541.049C534.449 461.614 529.449 462.014 529.449 462.514C529.449 463.114 527.049 462.514 524.249 461.214C518.449 458.714 515.049 457.414 514.649 457.614C514.549 457.614 512.549 456.614 510.149 455.314C507.849 454.014 504.649 452.614 502.949 452.214C501.349 451.814 498.149 450.614 495.749 449.514C493.449 448.514 491.049 447.614 490.449 447.614C489.749 447.614 488.049 447.014 486.649 446.214C482.349 444.014 475.049 441.114 474.349 441.314C473.949 441.414 473.049 440.914 472.449 440.114C471.749 439.314 470.449 438.614 469.449 438.614C468.549 438.614 467.449 438.314 467.149 437.914C466.749 437.614 464.349 436.514 461.749 435.614C459.049 434.614 455.649 433.314 453.949 432.614C452.349 431.914 450.349 431.214 449.649 431.014C448.849 430.914 445.849 429.614 442.849 428.214C439.849 426.814 437.149 425.614 436.849 425.614C436.249 425.614 434.349 424.814 425.249 420.714C422.649 419.614 419.949 418.614 419.449 418.614C418.849 418.614 416.549 417.714 414.449 416.614C412.249 415.514 410.449 414.814 410.449 415.114C410.449 415.414 408.549 414.614 406.249 413.414C403.849 412.114 400.149 410.414 397.949 409.714C395.749 408.914 392.149 407.514 389.949 406.514C387.749 405.514 383.949 404.114 381.449 403.214C378.949 402.414 374.749 400.814 371.949 399.614C369.249 398.314 365.149 396.614 362.949 395.614C360.749 394.614 357.849 393.514 356.449 393.114C355.049 392.714 352.149 391.614 349.949 390.614C341.649 387.014 340.249 386.614 337.049 386.614C334.949 386.614 331.649 385.214 327.849 382.814C324.649 380.714 319.749 378.214 316.949 377.214C314.249 376.214 309.949 374.414 307.449 373.414C298.549 369.414 296.749 368.714 280.949 362.614C272.149 359.114 264.449 355.914 263.749 355.414C263.049 354.914 262.149 354.714 261.649 355.014C261.049 355.314 260.149 354.914 259.449 354.114C258.749 353.314 257.449 352.614 256.449 352.614C255.449 352.614 252.949 351.714 250.749 350.714C248.649 349.614 244.249 347.814 240.949 346.514C237.649 345.314 232.149 343.014 228.649 341.414C225.249 339.914 221.749 338.614 220.949 338.614C220.249 338.614 219.249 338.114 218.949 337.614C218.649 337.014 217.449 336.614 216.349 336.614C215.349 336.614 214.449 336.114 214.449 335.614C214.449 335.014 213.549 334.614 212.449 334.614C211.349 334.614 210.449 334.114 210.449 333.614C210.449 333.014 209.549 332.614 208.449 332.614C207.449 332.614 205.549 332.214 204.249 331.714C201.449 330.614 198.149 329.314 197.449 329.114C197.149 329.114 194.949 328.014 192.549 326.814C190.049 325.614 187.349 324.614 186.449 324.614C185.549 324.614 184.449 324.214 183.949 323.814C183.349 323.314 180.249 321.914 176.949 320.614C173.649 319.314 170.549 317.914 170.049 317.414C169.449 317.014 168.449 316.614 167.749 316.614C167.049 316.614 164.249 315.714 161.649 314.514C159.049 313.314 155.849 311.914 154.449 311.414C153.049 310.814 151.149 310.014 150.249 309.514C149.249 309.014 147.849 308.914 146.949 309.214C146.149 309.514 145.449 309.414 145.449 308.914C145.449 308.414 143.549 307.214 141.149 306.214C138.849 305.314 136.149 304.114 135.249 303.514C134.249 303.014 132.649 302.614 131.749 302.614C129.749 302.614 151.649 316.914 155.749 318.314C156.649 318.614 157.449 319.214 157.449 319.714C157.449 320.214 157.849 320.614 158.349 320.614C159.349 320.614 166.549 324.814 174.949 330.114C177.749 331.914 182.249 334.614 184.949 336.214C187.749 337.714 190.149 339.314 190.449 339.614C190.749 339.914 193.549 341.714 196.749 343.614C199.849 345.514 202.449 347.414 202.449 347.814C202.449 348.214 203.049 348.614 203.849 348.614C204.549 348.614 206.349 349.514 207.849 350.714C209.249 351.814 210.449 352.514 210.449 352.114C210.449 351.814 211.049 352.014 211.749 352.614C216.649 356.814 222.149 360.614 223.149 360.614C223.849 360.614 224.949 361.514 225.649 362.614C226.349 363.714 227.649 364.614 228.549 364.614C229.349 364.614 231.849 365.914 234.049 367.614C236.149 369.214 238.249 370.614 238.749 370.614C239.149 370.614 241.249 371.814 243.449 373.214C245.649 374.614 248.749 376.614 250.349 377.514C256.049 380.514 264.449 385.814 265.749 386.914C266.449 387.614 269.449 389.414 272.449 391.014C275.449 392.614 278.649 394.514 279.449 395.214C280.249 395.914 283.649 397.914 286.949 399.714C290.249 401.514 296.149 405.114 300.149 407.814C304.149 410.414 307.549 412.614 307.849 412.614C308.749 412.614 321.949 420.914 322.249 421.714C322.449 422.214 323.049 422.614 323.649 422.614C324.149 422.614 325.949 423.514 327.549 424.714C329.149 425.814 330.449 426.414 330.449 425.914C330.449 425.514 330.849 425.614 331.249 426.114C332.149 427.414 363.349 446.614 364.549 446.614C365.049 446.614 365.449 447.014 365.449 447.614C365.449 448.114 365.949 448.614 366.449 448.614C367.049 448.614 370.249 450.414 373.549 452.614C376.849 454.814 379.749 456.614 379.949 456.614C380.649 456.614 407.549 473.314 409.449 474.914C410.549 475.814 411.849 476.614 412.349 476.614C413.549 476.614 419.549 479.814 421.249 481.314C421.949 482.014 422.949 482.614 423.449 482.614C424.449 482.614 433.049 487.614 439.149 491.814C441.449 493.314 443.649 494.614 444.149 494.614C444.649 494.614 446.549 495.914 448.449 497.614C450.349 499.214 452.449 500.514 453.049 500.614C453.649 500.614 456.049 501.914 458.249 503.614C460.549 505.214 462.849 506.614 463.449 506.614C463.949 506.614 464.449 507.014 464.449 507.414C464.449 508.114 469.149 511.014 475.149 514.014C476.449 514.614 477.449 515.414 477.449 515.814C477.449 516.314 477.849 516.614 478.349 516.614C478.849 516.614 484.849 520.214 491.649 524.514L503.949 532.414L504.249 538.914L504.549 545.414L491.749 544.914C484.749 544.614 478.249 544.014 477.449 543.614C476.649 543.214 471.449 542.814 465.949 542.714C460.549 542.614 455.549 542.114 454.949 541.614C453.949 540.814 448.849 540.414 425.449 539.114C420.249 538.814 415.249 538.314 414.449 537.914C413.649 537.614 407.749 536.914 401.449 536.514C395.149 536.014 386.549 535.214 382.449 534.614C371.549 533.114 356.049 531.514 347.449 531.214C343.349 531.014 338.149 530.314 335.849 529.714C333.549 529.114 328.549 528.714 324.749 528.714C320.849 528.814 316.849 528.414 315.749 527.814C314.749 527.214 310.249 526.814 305.749 526.814C301.249 526.814 296.749 526.314 295.749 525.814C294.149 525.014 285.049 524.214 265.749 523.114C262.349 522.914 258.549 522.414 257.249 522.014C254.949 521.314 243.949 520.214 228.949 519.114C224.549 518.814 220.049 518.114 218.949 517.614C217.049 516.814 208.549 516.014 189.149 515.114C184.949 514.814 180.649 514.214 179.649 513.714C178.649 513.214 173.949 512.714 169.249 512.714C164.649 512.714 159.549 512.214 158.049 511.614C156.549 511.114 152.049 510.614 148.049 510.614C144.149 510.614 140.449 510.214 139.849 509.714C139.049 508.814 132.249 508.314 109.649 507.114C105.149 506.914 100.649 506.214 99.6489 505.714C98.7489 505.214 93.7489 504.814 88.7489 504.714C83.6489 504.714 78.6489 504.214 77.5489 503.614C76.4489 503.114 71.3489 502.614 66.2489 502.614C61.0489 502.614 56.4489 502.214 55.8489 501.714C55.3489 501.214 50.4489 500.514 44.9489 500.214C39.4489 499.814 32.5489 499.414 29.6489 499.214C26.7489 498.914 24.6489 499.214 25.0489 499.714C25.3489 500.214 26.4489 500.614 27.4489 500.614C29.1489 500.614 32.3489 501.414 44.4489 504.714C46.3489 505.314 49.0489 505.914 50.3489 506.114C51.7489 506.314 53.7489 506.914 54.8489 507.514C56.8489 508.414 62.6489 510.014 76.2489 513.314C79.6489 514.114 82.4489 515.114 82.4489 515.614C82.4489 516.014 85.0489 516.614 88.2489 517.014C91.3489 517.414 95.2489 518.314 96.8489 519.114C98.3489 519.914 100.749 520.614 102.049 520.614C103.249 520.614 104.649 521.014 104.949 521.614C105.249 522.214 106.849 522.614 108.449 522.614C110.049 522.614 111.549 523.014 111.849 523.514C112.149 524.014 113.849 524.614 115.649 524.914C122.949 526.114 139.049 530.414 140.949 531.614C141.549 532.014 144.649 532.814 147.949 533.514C151.249 534.214 158.449 536.114 163.949 537.814C169.449 539.414 175.749 541.214 177.949 541.814C180.149 542.414 184.449 543.714 187.449 544.714C190.449 545.714 196.549 547.414 200.949 548.614C205.349 549.814 210.549 551.214 212.449 551.814C214.349 552.314 217.049 553.014 218.449 553.214C219.849 553.514 221.849 554.214 222.949 554.714C224.049 555.214 229.949 556.914 235.949 558.514C242.049 560.114 254.649 563.514 263.949 566.114C283.449 571.514 282.349 571.214 288.949 572.714C291.749 573.314 298.449 575.114 303.949 576.814C309.449 578.414 317.349 580.714 321.449 581.714C325.549 582.814 330.549 584.114 332.449 584.714C334.349 585.314 337.049 585.914 338.349 586.114C339.749 586.314 341.749 586.914 342.849 587.514C344.049 588.014 347.849 589.214 351.449 590.114C355.049 591.014 359.549 592.214 361.449 592.814C363.349 593.314 366.149 594.014 367.649 594.314C369.249 594.614 370.449 595.214 370.449 595.714C370.449 596.214 371.949 596.614 373.849 596.614C375.749 596.614 377.549 597.014 377.849 597.514C378.449 598.314 379.649 598.614 388.749 600.214C390.749 600.514 392.749 601.214 393.049 601.714C393.349 602.214 394.649 602.614 396.049 602.614C397.349 602.614 399.249 603.014 400.249 603.514C401.149 604.014 404.749 605.014 408.249 605.714C411.649 606.414 414.449 607.414 414.449 607.814C414.449 608.214 415.949 608.614 417.849 608.614C419.749 608.614 421.649 609.114 422.049 609.714C422.349 610.314 423.749 610.614 425.049 610.314C426.349 610.114 427.449 610.314 427.449 610.714C427.449 611.214 428.649 611.814 430.249 612.114C435.349 613.214 440.949 614.814 442.649 615.714C443.649 616.214 446.649 616.614 449.349 616.614C452.149 616.614 454.649 617.114 454.949 617.614C455.349 618.214 456.449 618.614 457.349 618.414C458.349 618.214 460.249 618.614 461.549 619.214C462.849 619.914 466.649 621.014 469.949 621.714C473.249 622.414 476.349 623.314 476.849 623.814C477.449 624.214 478.849 624.614 480.049 624.614C481.349 624.614 482.649 625.014 482.949 625.614C483.249 626.114 484.749 626.614 486.149 626.614C487.649 626.614 490.349 627.114 492.149 627.814L495.449 629.014V636.814V644.614H489.949C486.749 644.614 484.249 645.114 483.749 645.814C483.249 646.614 480.549 647.114 476.949 647.214C469.149 647.314 458.449 648.514 455.949 649.614C454.849 650.114 451.249 650.714 447.949 651.014C444.649 651.314 438.449 651.814 434.249 652.214C429.749 652.514 426.049 653.414 425.449 654.214C424.649 655.114 422.849 655.314 419.549 654.914C416.849 654.614 413.849 654.814 412.749 655.514C411.549 656.114 408.249 656.614 405.349 656.714C402.349 656.714 398.649 657.214 396.949 657.614C393.449 658.614 387.049 659.414 376.149 660.314C371.949 660.614 368.149 661.314 367.849 661.714C367.549 662.214 364.749 662.614 361.649 662.614C358.549 662.614 353.949 663.214 351.449 663.914C348.949 664.614 345.149 665.114 342.949 665.014C340.749 664.914 338.749 665.214 338.449 665.714C338.149 666.214 334.749 666.814 330.949 667.114C327.049 667.414 320.849 668.014 316.949 668.614C313.149 669.114 307.949 669.814 305.449 670.114C302.949 670.414 298.049 671.114 294.449 671.614C281.749 673.514 279.849 673.814 272.449 674.714C268.349 675.214 261.849 675.914 257.949 676.214C254.149 676.514 250.549 677.214 249.949 677.714C249.449 678.214 246.649 678.614 243.649 678.614C240.749 678.614 237.449 679.114 236.449 679.614C235.449 680.214 231.949 680.714 228.749 680.714C225.549 680.814 222.249 681.214 221.449 681.614C219.949 682.414 212.549 683.314 200.449 684.214C196.849 684.514 193.049 685.114 191.949 685.614C189.949 686.514 184.149 687.214 169.749 688.214C165.749 688.514 162.449 689.114 162.449 689.514C162.449 690.014 159.449 690.614 155.749 691.014C147.849 691.814 137.049 693.114 126.449 694.614C119.349 695.614 114.549 696.214 96.7489 698.614C92.4489 699.214 85.8489 699.914 81.9489 700.214C78.1489 700.514 74.7489 701.214 74.4489 701.614C74.1489 702.114 71.2489 702.714 67.9489 703.114C52.8489 704.414 30.2489 707.414 29.6489 708.114C29.3489 708.414 63.2489 708.614 105.049 708.714C226.249 708.714 456.449 710.314 457.249 711.114C457.649 711.414 458.049 717.314 458.249 724.214C458.549 734.714 458.349 736.614 457.149 736.614C456.249 736.614 455.449 737.614 455.249 738.814C455.049 740.414 454.349 741.014 453.249 740.814C452.249 740.614 451.449 741.014 451.449 741.614C451.449 742.114 450.849 742.614 450.049 742.614C447.949 742.614 420.449 757.314 419.249 759.014C418.849 759.614 418.449 759.814 418.449 759.414C418.449 759.014 416.749 759.614 414.749 760.714C412.649 761.914 408.049 764.414 404.449 766.314C400.849 768.214 397.349 770.314 396.549 770.914C395.749 771.614 394.949 772.014 394.849 771.914C394.149 771.514 390.949 773.014 389.649 774.314C388.949 775.014 387.649 775.614 386.849 775.614C386.049 775.614 385.449 776.014 385.449 776.414C385.449 776.814 383.149 778.014 380.349 779.114C377.549 780.214 374.849 781.714 374.249 782.314C373.649 783.014 372.649 783.614 372.049 783.614C370.949 783.614 369.549 784.314 361.449 788.814C356.849 791.314 340.449 800.014 321.449 809.914C315.649 812.914 308.949 816.514 306.449 817.914C303.949 819.414 301.149 820.614 300.249 820.614C299.249 820.614 298.449 821.014 298.449 821.414C298.449 821.914 294.949 824.114 290.749 826.314C286.449 828.514 278.449 832.714 272.949 835.714C267.449 838.614 259.149 842.914 254.549 845.314C249.849 847.714 245.549 850.114 244.749 850.714C244.049 851.314 243.449 851.514 243.449 851.014C243.449 850.514 243.049 850.614 242.649 851.114C242.249 851.714 237.649 854.314 232.449 857.014C227.249 859.714 219.849 863.614 215.949 865.614C212.149 867.714 204.449 871.714 198.949 874.614C193.449 877.514 188.849 880.214 188.649 880.714C188.449 881.214 187.649 881.614 186.849 881.614C185.949 881.614 183.249 882.814 180.649 884.314C168.149 891.414 165.849 892.614 164.249 892.614C163.349 892.614 162.449 893.014 162.249 893.414C161.749 894.614 146.249 903.014 115.649 918.714C109.249 921.914 103.549 925.114 103.049 925.614C102.449 926.214 101.249 926.614 100.249 926.614C99.2489 926.614 98.4489 927.014 98.4489 927.514C98.4489 928.014 97.4489 928.714 96.2489 929.114C94.9489 929.414 94.4489 929.914 95.0489 930.214C95.6489 930.414 99.8489 929.314 104.549 927.614C109.149 925.914 113.849 924.314 114.949 924.114C117.749 923.514 127.349 920.014 128.149 919.214C128.449 918.914 130.049 918.614 131.549 918.614C133.049 918.614 134.649 918.114 134.949 917.614C135.249 917.014 136.549 916.614 137.849 916.614C139.049 916.614 140.449 916.214 140.949 915.814C141.549 915.314 146.649 913.514 152.449 911.614C158.249 909.814 164.349 907.814 165.949 907.114C169.949 905.414 175.949 903.414 187.949 899.614C193.449 897.914 198.849 896.114 199.949 895.614C201.849 894.814 203.949 894.114 224.449 887.514C229.649 885.814 234.849 884.014 235.949 883.514C237.049 883.014 242.449 881.214 247.949 879.514C253.449 877.814 259.749 875.614 261.949 874.614C264.149 873.614 267.949 872.114 270.449 871.314C272.949 870.414 278.049 868.614 281.949 867.214C285.749 865.814 289.749 864.614 290.749 864.614C291.749 864.614 297.149 863.014 302.749 861.014C308.349 859.014 314.349 857.014 315.949 856.614C321.749 854.914 328.949 852.414 330.649 851.514C331.649 851.014 333.349 850.614 334.349 850.614C335.449 850.614 336.649 850.114 336.949 849.614C337.249 849.014 338.549 848.614 339.849 848.614C341.049 848.614 342.449 848.214 342.949 847.814C343.549 847.314 345.949 846.414 348.449 845.714C350.949 845.014 353.749 844.014 354.649 843.514C355.649 843.014 357.149 842.614 357.949 842.614C358.849 842.614 360.649 841.914 362.049 841.014C363.349 840.114 364.749 839.614 365.149 840.014C365.449 840.314 366.249 840.214 366.849 839.814C367.449 839.314 369.949 838.414 372.449 837.714C374.949 836.914 378.349 835.814 379.949 835.014C381.649 834.314 387.049 832.514 391.949 831.014C396.949 829.614 401.849 828.014 402.949 827.614C404.049 827.214 407.249 825.914 409.949 824.814C412.749 823.714 417.449 822.214 420.449 821.514C423.449 820.814 426.149 819.914 426.449 819.614C426.849 819.114 433.449 816.814 436.449 816.114C439.549 815.314 449.349 812.214 450.649 811.514C451.649 811.014 453.449 810.614 454.749 810.614C456.049 810.614 458.949 809.714 461.249 808.614C463.449 807.514 466.049 806.614 466.849 806.614C467.649 806.614 468.649 806.114 468.949 805.614C469.249 805.014 470.649 804.614 471.949 804.614C473.249 804.614 474.549 804.214 474.849 803.714C475.149 803.214 476.449 802.614 477.649 802.314C478.949 802.014 484.249 800.314 489.449 798.414C498.449 795.314 499.549 795.114 510.049 795.414L521.149 795.814L521.849 803.914C522.149 808.414 522.449 819.614 522.449 828.714V845.314L650.749 845.214C739.649 845.114 779.549 845.414 780.949 846.214C782.349 846.914 791.949 847.014 812.449 846.414C828.649 845.914 862.449 845.114 887.449 844.714C912.449 844.314 938.149 843.414 944.449 842.714C953.349 841.714 976.849 841.514 1047.75 841.914L1139.45 842.314V822.014V801.614H1148.75C1155.85 801.614 1160.55 802.314 1169.45 804.714C1175.75 806.414 1183.45 808.414 1186.45 809.214C1189.45 809.914 1192.85 811.014 1193.95 811.514C1195.05 812.014 1199.75 813.414 1204.45 814.714C1209.15 815.914 1215.25 817.514 1217.95 818.314C1220.75 819.114 1224.75 820.114 1226.95 820.614C1235.75 822.514 1244.05 824.714 1245.95 825.514C1247.05 826.014 1249.85 826.914 1252.25 827.514C1254.55 828.114 1258.35 829.114 1260.75 829.714C1263.05 830.314 1266.05 831.214 1267.45 831.714C1268.85 832.114 1272.55 833.014 1275.75 833.714C1278.95 834.414 1281.75 835.314 1282.05 835.814C1282.35 836.214 1283.55 836.614 1284.65 836.614C1286.65 836.614 1291.45 837.914 1295.95 839.714C1297.05 840.114 1299.05 840.714 1300.45 841.014C1301.85 841.214 1304.75 842.014 1306.95 842.614C1309.15 843.214 1312.55 844.114 1314.45 844.614C1316.35 845.114 1319.55 845.914 1321.45 846.514C1323.35 847.014 1328.15 848.214 1331.95 849.114C1335.85 850.114 1339.35 851.214 1339.95 851.714C1340.45 852.214 1342.15 852.614 1343.65 852.614C1345.15 852.614 1346.45 853.014 1346.45 853.514C1346.45 854.014 1347.95 854.614 1349.75 854.914C1353.15 855.514 1358.75 856.814 1364.45 858.514C1366.35 859.014 1370.85 860.214 1374.45 861.114C1378.05 861.914 1382.05 863.014 1383.45 863.514C1384.85 864.014 1387.95 864.914 1390.45 865.614C1392.95 866.314 1395.95 867.214 1397.15 867.714C1398.85 868.314 1427.65 876.414 1464.95 886.714C1467.15 887.314 1470.05 888.214 1471.45 888.614C1472.85 889.014 1476.45 890.114 1479.45 891.014C1488.25 893.614 1503.75 897.814 1505.95 898.214C1507.85 898.614 1519.25 901.714 1532.45 905.614C1544.75 909.314 1550.95 910.814 1554.45 911.314C1556.35 911.514 1558.85 912.114 1559.95 912.614C1562.05 913.514 1565.05 914.414 1577.45 917.714C1581.55 918.814 1586.55 920.214 1588.45 920.714C1590.35 921.314 1593.05 921.914 1594.35 922.114C1595.65 922.314 1597.15 922.914 1597.75 923.514C1598.35 924.114 1599.95 924.614 1601.35 924.614C1603.85 924.614 1609.15 926.114 1613.05 927.814C1614.25 928.414 1616.25 928.614 1617.55 928.414C1619.75 928.114 1619.55 927.914 1615.95 926.214C1613.75 925.214 1608.35 922.714 1603.95 920.614C1599.55 918.614 1594.35 916.214 1592.45 915.314C1590.55 914.514 1584.25 911.514 1578.45 908.814C1572.65 906.114 1565.75 902.914 1562.95 901.614C1560.25 900.414 1556.35 898.714 1554.45 897.814C1552.55 897.014 1549.85 895.514 1548.45 894.614C1547.05 893.614 1544.95 892.514 1543.65 892.114C1542.35 891.814 1536.35 889.114 1530.15 886.114C1509.45 876.414 1494.15 869.414 1490.55 868.114C1488.55 867.414 1482.25 864.614 1476.45 861.814C1462.55 855.214 1450.05 849.314 1449.45 849.114C1445.15 847.514 1442.45 846.014 1442.45 845.414C1442.45 845.014 1441.75 844.614 1440.85 844.614C1439.95 844.614 1435.35 842.714 1430.55 840.514C1425.85 838.214 1419.45 835.314 1416.45 833.914C1413.45 832.614 1406.45 829.314 1400.95 826.614C1395.45 824.014 1388.45 820.714 1385.45 819.314C1382.45 817.914 1376.95 815.414 1373.35 813.714C1369.65 812.014 1366.15 810.614 1365.55 810.614C1364.15 810.614 1362.75 809.914 1342.45 799.514C1338.35 797.414 1334.45 795.614 1333.85 795.614C1333.35 795.614 1330.25 794.114 1327.15 792.214C1323.95 790.314 1320.45 788.414 1319.15 788.114C1317.95 787.714 1313.85 785.914 1309.95 784.114C1306.15 782.314 1298.15 778.714 1292.25 776.214C1281.25 771.514 1270.25 766.514 1254.95 759.114C1246.35 755.014 1242.75 753.514 1242.15 753.814C1242.05 753.914 1239.95 752.714 1237.55 751.214C1235.15 749.714 1231.75 748.214 1229.85 747.914C1227.95 747.614 1226.45 746.914 1226.45 746.514C1226.45 746.014 1225.55 745.614 1224.45 745.614C1222.55 745.614 1222.45 744.914 1222.45 729.114C1222.45 711.814 1222.45 711.814 1226.75 712.514C1227.25 712.614 1233.95 712.214 1241.75 711.714C1249.55 711.114 1267.45 710.414 1281.45 710.014C1295.45 709.714 1314.85 708.914 1324.45 708.414C1334.05 707.914 1352.75 707.114 1365.95 706.614C1379.15 706.214 1395.15 705.514 1401.45 705.214C1407.75 704.814 1419.95 704.314 1428.45 704.114C1436.95 703.914 1455.65 703.214 1469.95 702.614C1484.25 702.014 1507.65 701.114 1521.95 700.714C1536.25 700.214 1549.05 699.614 1550.45 699.314C1551.85 698.914 1563.75 698.414 1576.95 698.114C1621.45 697.014 1635.75 695.714 1619.45 694.214C1616.45 693.914 1610.55 693.314 1606.45 692.714C1602.35 692.114 1596.95 691.414 1594.45 691.114C1591.95 690.814 1588.85 690.114 1587.45 689.614C1586.05 689.214 1582.05 688.514 1578.45 688.114C1574.85 687.814 1569.05 687.114 1565.45 686.514C1561.85 686.014 1555.85 685.114 1551.95 684.714C1548.15 684.214 1541.55 683.314 1537.45 682.614C1528.05 681.114 1519.25 679.914 1513.45 679.214C1510.95 678.914 1506.75 678.214 1503.95 677.614C1498.35 676.514 1494.25 675.914 1483.95 674.614C1477.55 673.814 1468.15 672.614 1458.15 671.114C1455.95 670.814 1451.15 669.914 1447.25 669.114C1443.45 668.314 1438.85 667.614 1436.95 667.614C1435.15 667.614 1431.45 667.114 1428.75 666.614C1421.35 665.014 1391.85 660.714 1371.25 658.114C1369.45 657.914 1365.05 657.214 1361.45 656.614C1355.55 655.714 1346.95 654.414 1310.95 649.114C1284.95 645.214 1273.15 643.714 1266.25 643.114C1262.25 642.714 1258.05 642.214 1256.95 641.914C1255.05 641.314 1248.35 640.214 1236.45 638.614C1232.85 638.114 1226.55 637.214 1222.45 636.614C1218.35 636.014 1212.75 635.314 1210.05 635.114C1207.45 634.814 1204.35 634.114 1203.35 633.614C1202.35 633.014 1199.35 632.614 1196.55 632.614C1193.75 632.614 1189.45 632.114 1186.95 631.414C1182.65 630.214 1182.45 630.014 1182.45 626.614C1182.45 623.414 1182.75 623.014 1186.45 621.814C1188.65 621.214 1191.15 620.614 1191.95 620.614C1192.75 620.614 1194.25 620.214 1195.25 619.614C1197.45 618.414 1216.55 612.614 1218.45 612.614C1219.25 612.614 1222.25 611.414 1224.95 610.114C1230.25 607.414 1271.25 595.114 1282.95 592.614C1285.15 592.114 1288.75 591.214 1290.95 590.614C1293.15 590.014 1296.55 589.114 1298.55 588.714C1300.45 588.314 1302.65 587.614 1303.25 587.214C1303.95 586.814 1305.45 586.314 1306.55 586.114C1307.75 585.814 1311.25 584.914 1314.35 584.014C1320.35 582.214 1320.95 582.014 1326.45 581.014C1328.35 580.614 1330.45 580.014 1330.95 579.614C1331.85 578.914 1340.85 576.014 1349.45 573.614C1351.35 573.114 1356.55 571.514 1360.95 570.214C1365.35 568.914 1371.65 567.014 1374.95 566.114C1378.25 565.214 1382.05 564.014 1383.45 563.614C1384.85 563.114 1389.35 561.814 1393.45 560.614C1397.55 559.414 1401.95 558.014 1403.25 557.514C1404.55 557.014 1406.65 556.614 1407.95 556.614C1409.25 556.614 1410.55 556.214 1410.85 555.714C1411.15 555.314 1413.55 554.314 1416.15 553.614C1418.85 553.014 1422.05 552.114 1423.45 551.614C1424.85 551.214 1427.95 550.314 1430.45 549.614C1432.95 548.914 1436.55 547.814 1438.45 547.114C1440.35 546.414 1442.45 545.814 1442.95 545.714C1445.05 545.414 1457.35 541.814 1470.85 537.514C1475.75 535.914 1480.25 534.614 1480.95 534.614C1481.65 534.614 1485.55 533.514 1489.55 532.214C1493.65 530.914 1501.05 528.714 1505.95 527.214C1510.95 525.814 1516.35 524.114 1517.95 523.514C1521.75 522.214 1522.05 522.114 1526.95 521.114C1529.15 520.714 1532.15 519.714 1533.55 519.014C1535.05 518.314 1536.45 517.914 1536.65 518.214C1536.95 518.414 1538.85 517.914 1541.05 517.014C1543.15 516.114 1548.15 514.514 1551.95 513.614C1559.75 511.614 1568.15 509.114 1573.45 507.114C1575.35 506.414 1579.65 505.014 1582.95 504.114C1591.95 501.514 1595.65 500.414 1598.95 499.214C1600.65 498.614 1602.45 498.114 1602.95 498.114C1604.55 497.914 1609.75 496.514 1611.95 495.614C1613.85 494.814 1616.45 494.214 1622.95 492.914C1624.65 492.614 1626.15 492.014 1626.45 491.614C1626.75 491.214 1628.75 490.414 1630.95 489.814C1634.65 488.914 1634.45 488.814 1626.75 488.714C1622.15 488.614 1618.45 489.014 1618.45 489.514C1618.45 490.014 1615.15 490.614 1611.25 490.914C1600.55 491.714 1587.15 493.314 1585.45 494.014C1584.65 494.314 1581.25 494.814 1577.95 495.014C1563.65 496.014 1556.35 496.914 1555.85 497.714C1555.55 498.214 1553.65 498.614 1551.65 498.614C1546.65 498.614 1529.05 500.514 1523.45 501.614C1520.95 502.214 1516.45 502.814 1513.45 503.114C1507.55 503.614 1496.65 504.914 1484.45 506.614C1480.35 507.114 1473.85 507.814 1469.95 508.114C1466.15 508.514 1461.15 509.214 1458.95 509.714C1456.75 510.214 1452.75 510.814 1449.95 511.014C1447.25 511.214 1441.15 511.914 1436.45 512.514C1415.85 515.114 1411.35 515.614 1401.45 516.614C1395.65 517.214 1388.25 518.114 1384.95 518.614C1381.65 519.114 1369.25 520.714 1357.45 522.114C1345.65 523.514 1329.45 525.514 1321.45 526.614C1313.45 527.614 1299.55 529.414 1290.45 530.514C1274.65 532.514 1242.25 536.814 1228.45 538.714C1224.85 539.114 1218.35 539.814 1213.95 540.214C1209.55 540.514 1204.55 541.214 1202.85 541.714C1201.15 542.214 1198.05 542.714 1195.85 542.714C1193.75 542.814 1190.35 543.214 1188.35 543.714C1186.35 544.214 1182.75 544.614 1180.35 544.714C1177.95 544.714 1173.75 545.214 1170.95 545.614C1160.85 547.414 1148.65 548.614 1147.05 548.014C1145.85 547.514 1145.45 546.014 1145.45 541.014V534.614L1152.75 530.014C1166.95 520.814 1177.95 513.614 1179.15 512.614C1179.85 512.114 1180.65 511.614 1181.05 511.614C1181.35 511.614 1186.35 508.414 1192.05 504.614C1197.85 500.714 1202.65 497.614 1202.95 497.614C1203.55 497.614 1219.65 486.914 1221.35 485.414C1222.15 484.714 1225.55 482.314 1229.05 480.114C1240.55 472.814 1259.95 460.514 1261.85 459.314C1262.95 458.614 1265.65 456.914 1267.75 455.314C1269.95 453.814 1272.35 452.614 1273.05 452.614C1273.75 452.614 1274.45 452.214 1274.65 451.714C1274.85 451.214 1280.15 447.614 1286.45 443.614C1304.55 432.214 1334.55 413.314 1351.25 402.714C1359.65 397.414 1368.35 392.014 1370.45 390.614C1372.55 389.214 1376.45 386.814 1379.15 385.214C1384.95 381.714 1399.35 372.414 1405.15 368.514C1407.45 366.914 1409.55 365.614 1409.85 365.614C1410.15 365.614 1412.25 364.314 1414.65 362.814C1417.05 361.214 1420.55 359.014 1422.45 358.014C1424.35 357.014 1426.15 355.814 1426.45 355.514C1426.95 354.914 1460.15 333.714 1480.45 321.114C1485.65 317.814 1491.45 314.114 1493.35 312.914C1495.25 311.614 1497.55 310.614 1498.55 310.614C1499.55 310.614 1503.15 308.814 1506.45 306.714C1509.85 304.514 1513.05 302.514 1513.75 302.314C1514.45 302.114 1514.55 301.514 1514.15 301.014C1513.75 300.614 1511.95 300.914 1510.15 301.814C1505.75 304.014 1493.15 308.614 1491.65 308.614C1491.05 308.614 1490.45 309.014 1490.45 309.614C1490.45 310.114 1489.75 310.614 1488.95 310.614C1488.15 310.614 1486.65 311.014 1485.65 311.514C1481.65 313.614 1474.35 316.614 1473.15 316.614C1472.45 316.614 1471.45 317.014 1470.85 317.514C1470.35 318.014 1464.55 320.514 1457.95 323.114C1444.45 328.414 1407.15 343.814 1400.75 346.714C1398.45 347.714 1395.85 348.614 1395.05 348.614C1394.25 348.614 1393.35 349.014 1393.05 349.414C1392.75 349.914 1389.45 351.514 1385.75 353.114C1382.05 354.614 1377.15 356.714 1374.95 357.614C1369.85 359.814 1367.25 360.814 1365.95 361.214C1361.85 362.414 1354.85 365.214 1354.45 365.814C1354.15 366.214 1351.95 367.214 1349.65 368.014C1345.55 369.514 1342.55 370.814 1333.85 374.714C1331.65 375.814 1329.35 376.614 1328.75 376.614C1328.25 376.614 1326.45 377.214 1324.85 378.014C1323.25 378.814 1316.75 381.514 1310.45 384.114C1304.15 386.714 1297.65 389.414 1295.95 390.114C1294.35 390.814 1290.05 392.614 1286.45 394.114C1282.85 395.514 1278.65 397.314 1276.95 398.114C1275.35 398.814 1270.85 400.614 1266.95 402.114C1263.15 403.614 1258.05 405.614 1255.85 406.614C1253.55 407.714 1247.45 410.214 1242.35 412.214C1237.15 414.214 1231.65 416.414 1229.95 417.214C1228.35 417.914 1217.05 422.614 1204.85 427.514C1192.75 432.414 1179.45 438.114 1175.25 440.014C1171.05 441.914 1166.35 443.814 1164.75 444.214C1163.25 444.614 1161.55 445.214 1160.95 445.614C1160.45 446.014 1156.85 447.614 1152.95 449.114C1149.15 450.614 1144.75 452.714 1143.25 453.714C1141.85 454.814 1140.15 455.614 1139.45 455.614C1138.75 455.614 1136.85 456.214 1135.15 457.014C1128.15 460.014 1126.25 460.614 1124.45 460.614C1123.35 460.614 1122.45 461.014 1122.45 461.614C1122.45 462.114 1121.75 462.614 1120.85 462.614C1120.05 462.614 1116.95 463.714 1113.95 465.114C1111.05 466.514 1108.25 467.614 1107.75 467.514C1107.35 467.414 1105.65 467.914 1103.95 468.614C1100.05 470.314 1091.15 473.514 1090.25 473.614C1089.75 473.614 1089.45 469.914 1089.45 465.314V457.014L1098.45 446.114C1103.45 440.014 1109.05 433.314 1110.95 431.114C1112.75 428.914 1118.25 422.114 1123.05 416.114C1127.85 410.014 1132.05 404.914 1132.45 404.614C1132.75 404.314 1133.75 403.014 1134.55 401.614C1136.15 399.114 1140.05 394.414 1143.95 390.114C1145.05 388.914 1146.45 387.214 1146.95 386.314C1148.35 384.214 1160.65 368.214 1161.45 367.614C1161.75 367.314 1163.55 365.114 1165.45 362.614C1167.35 360.114 1169.85 357.014 1171.15 355.714C1172.45 354.414 1173.45 353.014 1173.45 352.514C1173.45 352.114 1174.05 351.114 1174.75 350.414C1176.65 348.414 1219.35 294.614 1222.95 289.614C1224.75 287.214 1228.85 282.114 1233.25 276.714C1234.25 275.614 1236.05 273.214 1237.45 271.414C1241.45 266.314 1251.85 253.214 1252.45 252.614C1252.75 252.314 1255.65 248.614 1258.85 244.314C1262.05 240.114 1265.15 236.614 1265.55 236.614C1266.05 236.614 1266.45 236.114 1266.45 235.614C1266.45 235.014 1269.25 231.114 1272.65 226.814C1279.45 218.414 1286.05 210.114 1290.25 204.714C1291.75 202.814 1294.05 200.014 1295.45 198.514C1296.85 197.014 1298.45 195.014 1299.05 193.914C1299.75 192.814 1304.85 186.114 1310.55 179.014C1316.15 171.914 1321.25 165.514 1321.75 164.814C1323.55 162.514 1320.75 163.514 1317.85 166.414C1316.25 167.914 1311.35 171.814 1306.95 175.114C1302.55 178.414 1298.25 181.814 1297.45 182.714C1296.15 184.014 1292.55 187.014 1283.15 194.614C1282.05 195.414 1280.75 196.614 1280.05 197.114C1279.45 197.714 1275.15 201.214 1270.45 205.014C1265.75 208.814 1261.05 212.814 1259.95 213.814C1258.35 215.214 1249.55 222.414 1243.65 227.114C1242.95 227.614 1241.55 228.814 1240.65 229.714C1239.75 230.514 1236.75 233.014 1233.95 235.214C1231.25 237.314 1225.25 242.114 1220.85 245.814C1216.35 249.614 1212.25 252.614 1211.65 252.614C1211.05 252.614 1210.45 253.014 1210.25 253.514C1209.95 254.614 1206.55 257.414 1173.95 284.114C1162.55 293.414 1149.95 303.814 1145.95 307.114C1127.35 322.514 1124.65 324.614 1124.15 324.614C1123.85 324.614 1122.45 325.614 1121.25 326.814C1118.95 329.114 1108.05 338.114 1087.45 355.114C1081.65 359.814 1076.05 364.514 1074.95 365.414C1073.85 366.414 1070.45 369.214 1067.45 371.614C1059.85 377.814 1059.15 378.414 1048.45 387.314C1043.25 391.614 1036.95 396.714 1034.45 398.614C1031.95 400.514 1029.75 402.314 1029.45 402.614C1029.15 402.914 1023.55 407.514 1016.85 412.914C1005.05 422.314 1004.65 422.614 999.549 422.614C994.849 422.614 994.449 422.414 994.449 420.114C994.449 418.814 994.849 416.714 995.349 415.414C995.849 414.114 996.949 410.514 997.849 407.314C998.749 404.214 1000.15 399.214 1000.95 396.314C1001.75 393.514 1003.95 385.214 1005.95 378.114C1007.95 370.914 1010.85 360.414 1012.55 354.614C1014.15 348.814 1017.05 338.114 1018.95 330.814C1020.85 323.514 1022.65 317.114 1022.85 316.714C1023.15 316.314 1024.95 309.914 1026.85 302.514C1028.75 295.114 1031.95 283.214 1033.95 276.114C1035.85 268.914 1038.55 259.014 1039.95 254.114C1041.25 249.114 1043.95 239.214 1045.95 232.114C1047.95 224.914 1050.25 216.614 1051.05 213.614C1051.95 210.614 1053.05 206.614 1053.55 204.814C1054.05 203.114 1054.85 200.114 1055.35 198.314C1056.95 192.514 1061.65 175.314 1063.55 168.614C1064.55 165.014 1066.95 156.014 1068.95 148.614C1070.85 141.214 1072.95 134.214 1073.45 133.114C1073.95 132.014 1074.65 129.514 1074.95 127.614C1075.35 125.714 1076.55 121.014 1077.65 117.214C1078.75 113.414 1079.75 109.514 1079.95 108.414C1080.15 107.414 1080.85 105.114 1081.35 103.314C1082.65 99.5142 1085.75 88.1142 1087.45 81.1142C1088.05 78.3142 1088.95 75.4142 1089.25 74.6142C1089.85 73.0142 1093.15 60.7142 1094.15 56.6142C1094.65 54.5142 1094.25 54.8142 1092.05 57.9142C1090.65 60.0142 1089.45 61.9142 1089.45 62.2142C1089.45 62.7142 1069.55 96.7142 1064.75 104.414C1063.25 106.814 1052.35 125.614 1033.95 157.614C1027.75 168.314 1020.35 181.114 1017.45 186.114C1014.55 191.014 1008.95 200.714 1004.95 207.614C1001.05 214.514 995.149 224.614 991.949 230.114C988.749 235.614 982.049 247.314 976.949 256.114C966.949 273.414 964.749 277.114 959.449 286.014C957.549 289.214 955.049 293.414 953.849 295.414C952.749 297.514 948.849 304.314 945.349 310.614C935.249 328.414 933.249 331.914 931.349 335.114C929.149 338.614 924.549 346.814 922.549 350.514C921.749 351.914 919.449 355.714 917.249 358.914C915.149 362.114 913.449 365.014 913.449 365.214C913.449 365.514 912.649 366.914 911.549 368.414C909.949 370.814 903.449 381.514 898.149 390.914C897.149 392.714 894.249 397.614 891.749 401.814L887.249 409.614H882.349C879.249 409.614 877.249 409.114 876.949 408.314C876.549 407.214 874.049 388.914 872.849 377.614C872.549 375.114 871.649 368.814 870.849 363.614C870.049 358.414 868.449 347.614 867.449 339.714C866.349 331.814 865.249 324.614 865.049 323.714C864.749 322.814 864.249 319.414 863.949 316.114C863.349 310.514 862.549 304.514 858.849 280.114C858.049 274.614 857.149 266.314 856.949 261.614C856.549 254.114 854.349 235.514 852.849 227.114C852.349 224.014 848.349 197.214 844.049 167.614C842.649 158.514 841.349 150.414 841.049 149.614C840.849 148.814 840.349 145.414 840.049 142.114C839.749 138.814 839.349 134.714 839.049 133.114C837.549 125.014 835.249 109.814 834.449 103.314C833.349 94.7142 832.149 86.7142 829.949 72.6142C829.049 66.8142 828.149 60.5142 827.949 58.6142C827.649 56.7142 827.049 51.9142 826.449 48.1142C825.849 44.2142 824.949 38.5142 824.549 35.3142C824.049 32.1142 823.449 29.3142 823.149 29.0142C822.949 28.7142 822.449 33.2142 822.049 38.8142Z" fill="#F9A921"/>
<rect x="592" y="563" width="452" height="298" fill="white"/>
<path d="M811.028 384.563C800.274 393.799 758.605 429.224 750.333 436.179C748.058 438.135 743.405 442.156 739.993 445.198C736.477 448.132 723.656 459.108 711.455 469.54C699.254 479.972 680.745 495.728 670.405 504.53C660.065 513.332 651.38 520.613 651.07 520.613C650.759 520.613 650.449 493.446 650.449 460.303V399.993H591.512H532.574V502.683V605.481L530.3 607.872C526.474 611.784 501.141 631.996 500.004 631.996C499.073 631.996 486.148 641.667 449.855 669.485C443.858 674.049 436.93 679.265 434.345 681.004C431.864 682.743 428.969 684.916 428.038 685.785C427.211 686.655 419.456 692.74 410.977 699.369C402.498 705.889 395.467 711.648 395.26 712.083C395.054 712.517 394.227 712.952 393.399 712.952C392.572 712.952 391.952 713.387 391.952 713.821C391.952 714.256 390.608 715.56 388.85 716.538C387.195 717.625 385.231 719.037 384.507 719.798C383.783 720.559 380.888 722.841 377.993 724.905C375.201 726.861 372.616 728.817 372.306 729.252C371.996 729.578 370.135 731.099 368.17 732.512C364.344 735.229 363 736.75 363 738.38C363 739.032 392.365 739.032 435.896 738.597L508.793 737.837V806.296V874.865L725.207 874.973C1011.83 875.082 1138.7 874.865 1139.73 874.213C1140.15 873.887 1140.56 843.895 1140.56 807.6V741.531L1176.03 740.879C1195.47 740.445 1222.35 740.445 1235.69 740.879C1252.13 741.314 1259.68 741.097 1258.95 740.336C1257.3 738.597 1213.15 701.433 1109.54 614.609C1088.76 597.222 1046.47 561.689 1015.45 535.717C943.275 475.19 888.474 429.333 885.062 426.616C883.511 425.421 873.584 417.054 863.038 408.143C852.388 399.124 839.153 388.04 833.672 383.367C828.192 378.803 823.332 375 822.919 375C822.505 375 817.232 379.347 811.028 384.563ZM755.606 571.251C761.396 574.185 765.015 577.989 768.634 585.16C771.736 591.354 771.736 605.046 768.634 611.349C765.843 616.782 759.742 622.976 754.159 625.91C747.748 629.279 736.891 629.062 730.273 625.584C720.244 620.26 713.523 608.958 713.523 597.657C713.523 587.986 720.967 575.598 729.343 570.925C736.787 566.905 747.024 567.013 755.606 571.251ZM619.947 599.939C626.771 601.786 633.802 603.742 635.456 604.286C646.934 607.328 673.817 618.195 687.363 625.258C730.377 647.752 761.293 678.396 777.94 715.234C785.178 731.425 789.935 748.051 792.726 767.502C794.691 781.412 795.932 822.053 794.484 823.031C793.864 823.466 792.83 821.618 792.209 818.684C788.487 803.254 773.287 769.458 761.396 750.007C755.296 740.01 741.854 720.776 739.889 718.929C739.166 718.277 737.304 715.886 735.65 713.495C725.31 698.282 696.255 667.638 674.748 649.274C656.757 633.843 624.703 610.262 609.296 601.026C598.646 594.723 600.611 594.506 619.947 599.939ZM856.73 598.635C854.973 600.374 846.597 608.632 838.119 617C812.165 642.428 793.243 666.117 780.422 688.828C774.528 699.369 774.115 699.912 772.874 697.521C768.531 688.502 767.807 671.007 771.219 659.054C774.942 646.231 785.385 632.213 798.827 622.107C808.546 614.826 828.709 604.938 844.322 599.939C848.355 598.635 852.698 597.222 854.145 596.679C859.109 594.94 859.832 595.484 856.73 598.635ZM934.073 674.484C941.724 678.613 945.137 684.481 945.137 693.718C945.137 707.519 933.452 717.407 921.148 714.039C908.637 710.453 902.433 696.543 907.809 684.155C909.671 679.7 915.047 674.484 918.77 673.506C923.216 672.311 930.971 672.854 934.073 674.484ZM847.011 686.981C850.63 688.176 855.076 689.915 856.937 690.784C858.695 691.653 860.453 692.305 860.763 692.305C862.314 692.305 873.998 698.717 880.202 702.846C889.921 709.583 897.987 718.385 901.916 726.753C906.052 735.663 907.086 748.16 904.397 757.831C903.467 761.308 902.329 764.025 901.916 764.025C901.502 764.025 899.227 760.439 896.953 756.092C894.574 751.854 889.715 744.139 886.096 739.032C878.858 729.035 854.042 701.868 843.392 692.305C839.669 689.045 836.671 686.003 836.671 685.459C836.568 684.155 840.083 684.59 847.011 686.981ZM1033.03 685.133C1033.03 685.351 1027.65 689.045 1021.13 693.283C981.016 719.689 946.067 752.832 921.562 787.714C908.12 806.84 894.988 832.593 889.301 851.284C888.06 855.413 886.716 858.456 886.406 858.13C883.924 855.522 885.992 819.445 889.508 803.688C902.019 747.182 945.447 708.605 1020.2 687.524C1029.1 684.916 1033.03 684.264 1033.03 685.133Z" fill="#FF0000"/>
</g>
<defs>
<filter id="filter0_d" x="-4" y="0" width="1724" height="1013" filterUnits="userSpaceOnUse" color-interpolation-filters="sRGB">
<feFlood flood-opacity="0" result="BackgroundImageFix"/>
<feColorMatrix in="SourceAlpha" type="matrix" values="0 0 0 0 0 0 0 0 0 0 0 0 0 0 0 0 0 0 127 0"/>
<feOffset dy="4"/>
<feGaussianBlur stdDeviation="2"/>
<feColorMatrix type="matrix" values="0 0 0 0 0 0 0 0 0 0 0 0 0 0 0 0 0 0 0.25 0"/>
<feBlend mode="normal" in2="BackgroundImageFix" result="effect1_dropShadow"/>
<feBlend mode="normal" in="SourceGraphic" in2="effect1_dropShadow" result="shape"/>
</filter>
</defs>
</svg>
